# xmcd
#
# Track frame offsets: 
#        150
#        23707
#        38047
#        53407
#        78757
#        90037
#        106507
#        124477
#        135395
#        141547
#        157237
#        181897
#        199267
#        217837
#        234337
#        251797
#
# Disc length: 3717 seconds
#
# Revision: 0
# Processed by: cddbd v1.5.2PL0 Copyright (c) Steve Scherf et al.
# Submitted via: ExactAudioCopy v1.2
#
DISCID=c90e8310
DTITLE=John Hammond - Walkin' Blues Live: Chicago and Toronto
DYEAR=2017
DGENRE=Blues
TTITLE0=Milkcow's Calf Blues
TTITLE1=Me And The Devil Blues
TTITLE2=Traveling Riverside Blues
TTITLE3=Hellhound Blues
TTITLE4=They're Red Hot
TTITLE5=Walkin' Blues
TTITLE6=Drunken Hearted Man
TTITLE7=32-20 Blues
TTITLE8=Station Introduction
TTITLE9=I'm Leaving Early In The Morning
TTITLE10=See That My Grave Is Kept Clean
TTITLE11=I'm In The Mood For Love
TTITLE12=Dreamy Eyed Girl
TTITLE13=Ride Till I Die
TTITLE14=Honest I Do
TTITLE15=Preachin' Blues
EXTD=
EXTT0=
EXTT1=
EXTT2=
EXTT3=
EXTT4=
EXTT5=
EXTT6=
EXTT7=
EXTT8=
EXTT9=
EXTT10=
EXTT11=
EXTT12=
EXTT13=
EXTT14=
EXTT15=
PLAYORDER=
